<svg width="23" height="23" viewBox="0 0 23 23" fill="none" xmlns="http://www.w3.org/2000/svg">
<path d="M11.4999 0.302094C11.9314 0.302094 12.2812 0.651871 12.2812 1.08334V2.12501C12.2812 2.55648 11.9314 2.90626 11.4999 2.90626C11.0684 2.90626 10.7187 2.55648 10.7187 2.12501V1.08334C10.7187 0.651871 11.0684 0.302094 11.4999 0.302094Z" fill="white"/>
<path d="M11.4999 5.51043C8.19196 5.51043 5.51034 8.19206 5.51034 11.5C5.51034 14.808 8.19196 17.4896 11.4999 17.4896C14.8079 17.4896 17.4895 14.808 17.4895 11.5C17.4895 8.19206 14.8079 5.51043 11.4999 5.51043Z" fill="white"/>
<path d="M4.68667 3.58191C4.38157 3.27681 3.88691 3.27681 3.58181 3.58191C3.27671 3.88701 3.27671 4.38167 3.58181 4.68677L4.31838 5.42334C4.62348 5.72843 5.11814 5.72843 5.42323 5.42334C5.72833 5.11824 5.72833 4.62358 5.42323 4.31848L4.68667 3.58191Z" fill="white"/>
<path d="M22.6978 11.5C22.6978 11.9315 22.3481 12.2813 21.9166 12.2813H20.8749C20.4434 12.2813 20.0937 11.9315 20.0937 11.5C20.0937 11.0685 20.4434 10.7188 20.8749 10.7188H21.9166C22.3481 10.7188 22.6978 11.0685 22.6978 11.5Z" fill="white"/>
<path d="M19.418 4.68676C19.7231 4.38166 19.7231 3.887 19.418 3.5819C19.1129 3.27681 18.6183 3.27681 18.3132 3.5819L17.5766 4.31847C17.2715 4.62357 17.2715 5.11823 17.5766 5.42333C17.8817 5.72842 18.3764 5.72842 18.6814 5.42333L19.418 4.68676Z" fill="white"/>
<path d="M11.4999 20.0938C11.9314 20.0938 12.2812 20.4435 12.2812 20.875V21.9167C12.2812 22.3482 11.9314 22.6979 11.4999 22.6979C11.0684 22.6979 10.7187 22.3482 10.7187 21.9167V20.875C10.7187 20.4435 11.0684 20.0938 11.4999 20.0938Z" fill="white"/>
<path d="M18.6815 17.5767C18.3764 17.2716 17.8818 17.2716 17.5767 17.5767C17.2716 17.8818 17.2716 18.3765 17.5767 18.6816L18.3132 19.4181C18.6183 19.7232 19.113 19.7232 19.4181 19.4181C19.7232 19.113 19.7232 18.6184 19.4181 18.3133L18.6815 17.5767Z" fill="white"/>
<path d="M2.90617 11.5C2.90617 11.9315 2.55639 12.2813 2.12492 12.2813H1.08325C0.651779 12.2813 0.302002 11.9315 0.302002 11.5C0.302002 11.0685 0.65178 10.7188 1.08325 10.7188H2.12492C2.55639 10.7188 2.90617 11.0685 2.90617 11.5Z" fill="white"/>
<path d="M5.42317 18.6815C5.72826 18.3764 5.72826 17.8818 5.42317 17.5767C5.11807 17.2716 4.62341 17.2716 4.31831 17.5767L3.58174 18.3133C3.27664 18.6184 3.27664 19.113 3.58174 19.4181C3.88684 19.7232 4.3815 19.7232 4.6866 19.4181L5.42317 18.6815Z" fill="white"/>
</svg>
